# xmcd CD database file
#
# Track frame offsets:
#	150
#	22538
#	44591
#	70029
#	107921
#	140163
#	171206
#	194004
#	231693
#	249595
#	296764
#
# Disc length: 4295 seconds
#
# Revision: 0
# Processed by: cddbd v1.5.2PL0 Copyright (c) Steve Scherf et al.
# Submitted via: CDex 1.51
#
DISCID=aa10c50b
DTITLE=Scott Sawyer - Go There
DYEAR=2007
DGENRE=Jazz
TTITLE0=Taxman
TTITLE1=5 Spot
TTITLE2=Royal and Canal
TTITLE3=Slow Dance
TTITLE4=AR
TTITLE5=Slow Down, Freight Train
TTITLE6=In The Stream
TTITLE7=Dark Lady
TTITLE8=Going...Going...Gone
TTITLE9=I Wish You Would
TTITLE10=Go Home
EXTD=YEAR: 2007
EXTT0=
EXTT1=
EXTT2=
EXTT3=
EXTT4=
EXTT5=
EXTT6=
EXTT7=
EXTT8=
EXTT9=
EXTT10=
PLAYORDER=
